<svg xmlns="http://www.w3.org/2000/svg" width="64" height="64" viewBox="0 0 64 64">
  <path id="Path_53" data-name="Path 53" d="M1867-583a32,32,0,0,0-32,32,32,32,0,0,0,32,32,32,32,0,0,0,32-32A32,32,0,0,0,1867-583Zm-7.946,37v6.59c0,5.288-5.985,4.283-5.747,4.061,1.073-1,1.149-4.575,1.149-5.747V-555.27a2.3,2.3,0,0,1,2.3-2.3h12.58a2.3,2.3,0,0,1,2.3,2.3,2.3,2.3,0,0,1-2.3,2.3h-10.281Zm19.044-1.468a10.486,10.486,0,0,1-8.3,3.69h-3.847a2.3,2.3,0,0,1-2.3-2.3,2.3,2.3,0,0,1,2.3-2.3h3.847a5.949,5.949,0,0,0,4.785-2.057,7.584,7.584,0,0,0,1.639-4.84,7.584,7.584,0,0,0-1.639-4.84,5.949,5.949,0,0,0-4.785-2.057h-13.042a2.3,2.3,0,0,1-2.3-2.3,2.3,2.3,0,0,1,2.3-2.3H1869.8c7.236,0,11.022,5.782,11.022,11.494A12.074,12.074,0,0,1,1878.1-547.466Z" transform="translate(-1835 583)" fill="#fff"/>
</svg>
